<mxfile host="65bd71144e">
    <diagram id="9cVoR4nEFYQzZkU8Vvco" name="Page-1">
        <mxGraphModel dx="1471" dy="1087" grid="1" gridSize="10" guides="1" tooltips="1" connect="1" arrows="1" fold="1" page="1" pageScale="1" pageWidth="827" pageHeight="1169" math="0" shadow="0">
            <root>
                <mxCell id="0"/>
                <mxCell id="1" parent="0"/>
                <mxCell id="49" value="" style="shape=cube;whiteSpace=wrap;html=1;boundedLbl=1;backgroundOutline=1;darkOpacity=0.05;darkOpacity2=0.1;fontSize=29;" parent="1" vertex="1">
                    <mxGeometry x="-71.55000000000001" y="413.57" width="1021.06" height="206.43" as="geometry"/>
                </mxCell>
                <mxCell id="3" value="" style="sketch=0;pointerEvents=1;shadow=0;dashed=0;html=1;strokeColor=none;fillColor=#434445;aspect=fixed;labelPosition=center;verticalLabelPosition=bottom;verticalAlign=top;align=center;outlineConnect=0;shape=mxgraph.vvd.cpu;" parent="1" vertex="1">
                    <mxGeometry x="-450" y="451.86" width="137" height="137" as="geometry"/>
                </mxCell>
                <mxCell id="2" value="" style="aspect=fixed;html=1;points=[];align=center;image;fontSize=12;image=img/lib/azure2/general/Counter.svg;" parent="1" vertex="1">
                    <mxGeometry x="-380" y="516.2" width="104" height="84.51" as="geometry"/>
                </mxCell>
                <mxCell id="4" value="" style="endArrow=classic;html=1;strokeWidth=8;" parent="1" edge="1">
                    <mxGeometry width="50" height="50" relative="1" as="geometry">
                        <mxPoint x="-225" y="541" as="sourcePoint"/>
                        <mxPoint x="-115" y="541" as="targetPoint"/>
                    </mxGeometry>
                </mxCell>
                <mxCell id="6" value="" style="group;fontSize=24;" parent="1" vertex="1" connectable="0">
                    <mxGeometry x="-10" y="440" width="980" height="180" as="geometry"/>
                </mxCell>
                <mxCell id="7" value="&lt;font style=&quot;font-size: 29px;&quot;&gt;(0)&lt;/font&gt;" style="rounded=0;whiteSpace=wrap;html=1;fillColor=#f5f5f5;strokeColor=#666666;gradientColor=#b3b3b3;fontSize=29;" parent="6" vertex="1">
                    <mxGeometry x="-0.0013383569876581761" y="112.13986666666666" width="103.85650224215247" height="42.85600000000001" as="geometry"/>
                </mxCell>
                <mxCell id="8" value="&lt;font style=&quot;font-size: 29px;&quot;&gt;0&lt;/font&gt;" style="rounded=0;whiteSpace=wrap;html=1;fillColor=#f9f7ed;strokeColor=#36393d;fontSize=29;" parent="6" vertex="1">
                    <mxGeometry x="-0.0013383569876581761" y="69.28386666666668" width="103.85650224215247" height="42.85600000000001" as="geometry"/>
                </mxCell>
                <mxCell id="9" value="&lt;font style=&quot;font-size: 29px;&quot;&gt;0&lt;/font&gt;" style="rounded=0;whiteSpace=wrap;html=1;fillColor=#f9f7ed;strokeColor=#36393d;fontSize=29;" parent="6" vertex="1">
                    <mxGeometry x="103.85516388516481" y="69.28386666666668" width="103.85650224215247" height="42.85600000000001" as="geometry"/>
                </mxCell>
                <mxCell id="10" value="&lt;font style=&quot;font-size: 29px;&quot;&gt;0&lt;/font&gt;" style="rounded=0;whiteSpace=wrap;html=1;fillColor=#f9f7ed;strokeColor=#36393d;fontSize=29;" parent="6" vertex="1">
                    <mxGeometry x="207.71166612731727" y="69.28386666666668" width="103.85650224215247" height="42.85600000000001" as="geometry"/>
                </mxCell>
                <mxCell id="11" value="&lt;font style=&quot;font-size: 29px;&quot;&gt;0&lt;/font&gt;" style="rounded=0;whiteSpace=wrap;html=1;fillColor=#f9f7ed;strokeColor=#36393d;fontSize=29;" parent="6" vertex="1">
                    <mxGeometry x="311.56816836946973" y="69.28386666666668" width="103.85650224215247" height="42.85600000000001" as="geometry"/>
                </mxCell>
                <mxCell id="12" value="&lt;font style=&quot;font-size: 29px;&quot;&gt;0&lt;/font&gt;" style="rounded=0;whiteSpace=wrap;html=1;fillColor=#f9f7ed;strokeColor=#36393d;fontSize=29;" parent="6" vertex="1">
                    <mxGeometry x="415.42467061162216" y="69.28386666666668" width="103.85650224215247" height="42.85600000000001" as="geometry"/>
                </mxCell>
                <mxCell id="13" value="&lt;font style=&quot;font-size: 29px;&quot;&gt;1&lt;/font&gt;" style="rounded=0;whiteSpace=wrap;html=1;fillColor=#f9f7ed;strokeColor=#36393d;fontSize=29;" parent="6" vertex="1">
                    <mxGeometry x="519.2811728537746" y="69.28386666666668" width="103.85650224215247" height="42.85600000000001" as="geometry"/>
                </mxCell>
                <mxCell id="14" value="&lt;font style=&quot;font-size: 29px;&quot;&gt;0&lt;/font&gt;" style="rounded=0;whiteSpace=wrap;html=1;fillColor=#f9f7ed;strokeColor=#36393d;fontSize=29;" parent="6" vertex="1">
                    <mxGeometry x="623.1376750959272" y="69.28386666666668" width="103.85650224215247" height="42.85600000000001" as="geometry"/>
                </mxCell>
                <mxCell id="15" value="&lt;font style=&quot;font-size: 29px;&quot;&gt;1&lt;/font&gt;" style="rounded=0;whiteSpace=wrap;html=1;fillColor=#f9f7ed;strokeColor=#36393d;fontSize=29;" parent="6" vertex="1">
                    <mxGeometry x="726.9941773380796" y="69.28386666666668" width="103.85650224215247" height="42.85600000000001" as="geometry"/>
                </mxCell>
                <mxCell id="16" value="&lt;font style=&quot;font-size: 29px;&quot;&gt;(0)&lt;/font&gt;" style="rounded=0;whiteSpace=wrap;html=1;fillColor=#f5f5f5;strokeColor=#666666;gradientColor=#b3b3b3;fontSize=29;" parent="6" vertex="1">
                    <mxGeometry x="103.85516388516481" y="112.13986666666666" width="103.85650224215247" height="42.85600000000001" as="geometry"/>
                </mxCell>
                <mxCell id="17" value="&lt;font style=&quot;font-size: 29px;&quot;&gt;CYC&lt;/font&gt;" style="rounded=0;whiteSpace=wrap;html=1;fillColor=#f5f5f5;strokeColor=#666666;gradientColor=#b3b3b3;fontSize=29;" parent="6" vertex="1">
                    <mxGeometry x="207.71166612731727" y="112.13986666666666" width="103.85650224215247" height="42.85600000000001" as="geometry"/>
                </mxCell>
                <mxCell id="18" value="&lt;font style=&quot;font-size: 29px;&quot;&gt;FOLD&lt;/font&gt;" style="rounded=0;whiteSpace=wrap;html=1;fillColor=#f5f5f5;strokeColor=#666666;gradientColor=#b3b3b3;fontSize=29;" parent="6" vertex="1">
                    <mxGeometry x="311.56816836946973" y="112.13986666666666" width="103.85650224215247" height="42.85600000000001" as="geometry"/>
                </mxCell>
                <mxCell id="19" value="&lt;font style=&quot;font-size: 29px;&quot;&gt;LSU&lt;/font&gt;" style="rounded=0;whiteSpace=wrap;html=1;fillColor=#f5f5f5;strokeColor=#666666;gradientColor=#b3b3b3;fontSize=29;" parent="6" vertex="1">
                    <mxGeometry x="415.42467061162216" y="112.13986666666666" width="103.85650224215247" height="42.85600000000001" as="geometry"/>
                </mxCell>
                <mxCell id="20" value="&lt;span style=&quot;font-size: 29px;&quot;&gt;SLEEP&lt;/span&gt;" style="rounded=0;whiteSpace=wrap;html=1;fillColor=#f5f5f5;strokeColor=#666666;gradientColor=#b3b3b3;fontSize=29;" parent="6" vertex="1">
                    <mxGeometry x="519.2811728537746" y="112.13986666666666" width="103.85650224215247" height="42.85600000000001" as="geometry"/>
                </mxCell>
                <mxCell id="21" value="&lt;span style=&quot;font-size: 29px;&quot;&gt;EXC&lt;/span&gt;" style="rounded=0;whiteSpace=wrap;html=1;fillColor=#f5f5f5;strokeColor=#666666;gradientColor=#b3b3b3;fontSize=29;" parent="6" vertex="1">
                    <mxGeometry x="623.1376750959272" y="112.13986666666666" width="103.85650224215247" height="42.85600000000001" as="geometry"/>
                </mxCell>
                <mxCell id="22" value="&lt;span style=&quot;font-size: 29px;&quot;&gt;CPI&lt;/span&gt;" style="rounded=0;whiteSpace=wrap;html=1;fillColor=#f5f5f5;strokeColor=#666666;gradientColor=#b3b3b3;fontSize=29;" parent="6" vertex="1">
                    <mxGeometry x="726.9941773380796" y="112.13986666666666" width="103.85650224215247" height="42.85600000000001" as="geometry"/>
                </mxCell>
                <mxCell id="23" value="" style="endArrow=none;dashed=1;html=1;dashPattern=1 3;strokeWidth=2;fontSize=29;" parent="6" edge="1">
                    <mxGeometry width="50" height="50" relative="1" as="geometry">
                        <mxPoint x="103.85516388516481" y="69.28386666666668" as="sourcePoint"/>
                        <mxPoint x="103.85516388516481" y="33.57053333333333" as="targetPoint"/>
                        <Array as="points">
                            <mxPoint x="103.85516388516481" y="54.998533333333334"/>
                        </Array>
                    </mxGeometry>
                </mxCell>
                <mxCell id="24" value="" style="endArrow=none;dashed=1;html=1;dashPattern=1 3;strokeWidth=2;fontSize=29;" parent="6" edge="1">
                    <mxGeometry width="50" height="50" relative="1" as="geometry">
                        <mxPoint x="-0.0013383569876581761" y="69.28386666666668" as="sourcePoint"/>
                        <mxPoint x="-0.0013383569876581761" y="33.57053333333333" as="targetPoint"/>
                        <Array as="points">
                            <mxPoint x="-0.0013383569876581761" y="54.998533333333334"/>
                        </Array>
                    </mxGeometry>
                </mxCell>
                <mxCell id="25" value="" style="endArrow=none;dashed=1;html=1;dashPattern=1 3;strokeWidth=2;fontSize=29;" parent="6" edge="1">
                    <mxGeometry width="50" height="50" relative="1" as="geometry">
                        <mxPoint x="311.56816836946973" y="69.28386666666668" as="sourcePoint"/>
                        <mxPoint x="311.56816836946973" y="33.57053333333333" as="targetPoint"/>
                        <Array as="points">
                            <mxPoint x="311.56816836946973" y="54.998533333333334"/>
                        </Array>
                    </mxGeometry>
                </mxCell>
                <mxCell id="26" value="" style="endArrow=none;dashed=1;html=1;dashPattern=1 3;strokeWidth=2;fontSize=29;" parent="6" edge="1">
                    <mxGeometry width="50" height="50" relative="1" as="geometry">
                        <mxPoint x="207.71166612731727" y="69.28386666666668" as="sourcePoint"/>
                        <mxPoint x="207.71166612731727" y="33.57053333333333" as="targetPoint"/>
                        <Array as="points">
                            <mxPoint x="207.71166612731727" y="54.998533333333334"/>
                        </Array>
                    </mxGeometry>
                </mxCell>
                <mxCell id="27" value="" style="endArrow=none;dashed=1;html=1;dashPattern=1 3;strokeWidth=2;fontSize=29;" parent="6" edge="1">
                    <mxGeometry width="50" height="50" relative="1" as="geometry">
                        <mxPoint x="622.9386167999629" y="69.28386666666668" as="sourcePoint"/>
                        <mxPoint x="622.9386167999629" y="33.57053333333333" as="targetPoint"/>
                        <Array as="points">
                            <mxPoint x="622.9386167999629" y="54.998533333333334"/>
                        </Array>
                    </mxGeometry>
                </mxCell>
                <mxCell id="28" value="" style="endArrow=none;dashed=1;html=1;dashPattern=1 3;strokeWidth=2;fontSize=29;" parent="6" edge="1">
                    <mxGeometry width="50" height="50" relative="1" as="geometry">
                        <mxPoint x="519.0821145578105" y="69.28386666666668" as="sourcePoint"/>
                        <mxPoint x="519.0821145578105" y="33.57053333333333" as="targetPoint"/>
                        <Array as="points">
                            <mxPoint x="519.0821145578105" y="54.998533333333334"/>
                        </Array>
                    </mxGeometry>
                </mxCell>
                <mxCell id="29" value="" style="endArrow=none;dashed=1;html=1;dashPattern=1 3;strokeWidth=2;fontSize=29;" parent="6" edge="1">
                    <mxGeometry width="50" height="50" relative="1" as="geometry">
                        <mxPoint x="830.6516212842679" y="69.28386666666668" as="sourcePoint"/>
                        <mxPoint x="830.6516212842679" y="33.57053333333333" as="targetPoint"/>
                        <Array as="points">
                            <mxPoint x="830.6516212842679" y="54.998533333333334"/>
                        </Array>
                    </mxGeometry>
                </mxCell>
                <mxCell id="30" value="" style="endArrow=none;dashed=1;html=1;dashPattern=1 3;strokeWidth=2;fontSize=29;" parent="6" edge="1">
                    <mxGeometry width="50" height="50" relative="1" as="geometry">
                        <mxPoint x="726.7951190421154" y="69.28386666666668" as="sourcePoint"/>
                        <mxPoint x="726.7951190421154" y="33.57053333333333" as="targetPoint"/>
                        <Array as="points">
                            <mxPoint x="726.7951190421154" y="54.998533333333334"/>
                        </Array>
                    </mxGeometry>
                </mxCell>
                <mxCell id="31" value="" style="endArrow=none;dashed=1;html=1;dashPattern=1 3;strokeWidth=2;fontSize=29;" parent="6" edge="1">
                    <mxGeometry width="50" height="50" relative="1" as="geometry">
                        <mxPoint x="415.4246706116224" y="69.28386666666668" as="sourcePoint"/>
                        <mxPoint x="415.4246706116224" y="33.57053333333333" as="targetPoint"/>
                        <Array as="points">
                            <mxPoint x="415.42467061162216" y="54.998533333333334"/>
                        </Array>
                    </mxGeometry>
                </mxCell>
                <mxCell id="32" value="&lt;font style=&quot;font-size: 29px;&quot;&gt;0&lt;/font&gt;" style="text;html=1;align=center;verticalAlign=middle;resizable=0;points=[];autosize=1;strokeColor=none;fillColor=none;fontSize=29;" parent="6" vertex="1">
                    <mxGeometry x="765.9403656788867" y="34.99906666666667" width="30" height="40" as="geometry"/>
                </mxCell>
                <mxCell id="33" value="1" style="text;html=1;align=center;verticalAlign=middle;resizable=0;points=[];autosize=1;strokeColor=none;fillColor=none;fontSize=29;" parent="6" vertex="1">
                    <mxGeometry x="662.0838634367343" y="33.57053333333333" width="30" height="40" as="geometry"/>
                </mxCell>
                <mxCell id="34" value="2" style="text;html=1;align=center;verticalAlign=middle;resizable=0;points=[];autosize=1;strokeColor=none;fillColor=none;fontSize=29;" parent="6" vertex="1">
                    <mxGeometry x="558.2273611945818" y="33.57053333333333" width="30" height="40" as="geometry"/>
                </mxCell>
                <mxCell id="35" value="3" style="text;html=1;align=center;verticalAlign=middle;resizable=0;points=[];autosize=1;strokeColor=none;fillColor=none;fontSize=29;" parent="6" vertex="1">
                    <mxGeometry x="454.37085895242933" y="33.57053333333333" width="30" height="40" as="geometry"/>
                </mxCell>
                <mxCell id="36" value="4" style="text;html=1;align=center;verticalAlign=middle;resizable=0;points=[];autosize=1;strokeColor=none;fillColor=none;fontSize=29;" parent="6" vertex="1">
                    <mxGeometry x="350.5143567102769" y="33.57053333333333" width="30" height="40" as="geometry"/>
                </mxCell>
                <mxCell id="37" value="5" style="text;html=1;align=center;verticalAlign=middle;resizable=0;points=[];autosize=1;strokeColor=none;fillColor=none;fontSize=29;" parent="6" vertex="1">
                    <mxGeometry x="246.65785446812444" y="33.57053333333333" width="30" height="40" as="geometry"/>
                </mxCell>
                <mxCell id="38" value="6" style="text;html=1;align=center;verticalAlign=middle;resizable=0;points=[];autosize=1;strokeColor=none;fillColor=none;fontSize=29;" parent="6" vertex="1">
                    <mxGeometry x="142.80135222597198" y="33.57053333333333" width="30" height="40" as="geometry"/>
                </mxCell>
                <mxCell id="39" value="7" style="text;html=1;align=center;verticalAlign=middle;resizable=0;points=[];autosize=1;strokeColor=none;fillColor=none;fontSize=29;" parent="6" vertex="1">
                    <mxGeometry x="38.944849983819516" y="33.57053333333333" width="30" height="40" as="geometry"/>
                </mxCell>
                <mxCell id="40" value="&lt;font style=&quot;font-size: 29px;&quot;&gt;Bit&lt;/font&gt;" style="text;html=1;align=center;verticalAlign=middle;resizable=0;points=[];autosize=1;strokeColor=none;fillColor=none;fontSize=29;" parent="6" vertex="1">
                    <mxGeometry x="839.5040497434237" y="29.280647733333332" width="50" height="40" as="geometry"/>
                </mxCell>
                <mxCell id="41" value="&lt;font style=&quot;font-size: 29px;&quot;&gt;Header&lt;/font&gt;" style="text;html=1;align=center;verticalAlign=middle;resizable=0;points=[];autosize=1;strokeColor=none;fillColor=none;fontSize=29;" parent="6" vertex="1">
                    <mxGeometry x="839.5053881004114" y="69.27672400000002" width="110" height="40" as="geometry"/>
                </mxCell>
                <mxCell id="42" value="&lt;font style=&quot;font-size: 29px;&quot;&gt;Payload&lt;/font&gt;" style="text;html=1;align=center;verticalAlign=middle;resizable=0;points=[];autosize=1;strokeColor=none;fillColor=none;fontSize=29;" parent="6" vertex="1">
                    <mxGeometry x="839.5056111599093" y="109.27137173333335" width="120" height="40" as="geometry"/>
                </mxCell>
                <mxCell id="43" value="&lt;font style=&quot;font-size: 25px&quot;&gt;LSB&lt;/font&gt;" style="text;html=1;align=center;verticalAlign=middle;resizable=0;points=[];autosize=1;strokeColor=none;fillColor=none;fontSize=29;" parent="6" vertex="1">
                    <mxGeometry x="795.7832728491516" y="-6.429828533333334" width="60" height="40" as="geometry"/>
                </mxCell>
                <mxCell id="44" value="&lt;font style=&quot;font-size: 25px&quot;&gt;MSB&lt;/font&gt;" style="text;html=1;align=center;verticalAlign=middle;resizable=0;points=[];autosize=1;strokeColor=none;fillColor=none;fontSize=29;" parent="6" vertex="1">
                    <mxGeometry x="-40.0009793814433" y="-6.429714133333335" width="70" height="40" as="geometry"/>
                </mxCell>
                <mxCell id="45" value="overflow" style="text;html=1;align=center;verticalAlign=middle;resizable=0;points=[];autosize=1;strokeColor=none;fillColor=none;fontSize=29;" parent="1" vertex="1">
                    <mxGeometry x="-230" y="486.2" width="120" height="40" as="geometry"/>
                </mxCell>
                <mxCell id="50" value="Event Counter Packet" style="text;html=1;align=center;verticalAlign=middle;resizable=0;points=[];autosize=1;strokeColor=none;fillColor=none;fontSize=29;" parent="1" vertex="1">
                    <mxGeometry x="310" y="620" width="300" height="40" as="geometry"/>
                </mxCell>
                <mxCell id="51" value="8 Bit" style="text;html=1;align=center;verticalAlign=middle;resizable=0;points=[];autosize=1;strokeColor=none;fillColor=none;fontSize=29;fontColor=#FF0000;" parent="1" vertex="1">
                    <mxGeometry x="-363" y="600.71" width="70" height="40" as="geometry"/>
                </mxCell>
            </root>
        </mxGraphModel>
    </diagram>
</mxfile>